<?xml version="1.0" encoding="utf-8"?>
<!-- Generator: Adobe Illustrator 23.0.3, SVG Export Plug-In . SVG Version: 6.00 Build 0)  -->
<svg version="1.1" id="Layer_1" xmlns="http://www.w3.org/2000/svg" xmlns:xlink="http://www.w3.org/1999/xlink" x="0px" y="0px"
	 width="1000px" height="300px" viewBox="0 0 1000 300" style="enable-background:new 0 0 1000 300;" xml:space="preserve">
<style type="text/css">
	.st0{fill:#FFFFFF;}
</style>
<g>
	<path class="st0" d="M127,21.1c0.8-2.3,1.7-4.4,1.7-6.2c0-4.8-3.7-6.5-14.6-6.8V2H148v6.1c-4.2,0.6-7.8,1.2-9.3,5.8l-35.8,98.8
		h-4.5L74.6,45.6l-23.7,67.1h-4.5L9.5,13.8C7.8,9.6,4.2,8.7,0,8.1V2h41.4v6.1c-10.7,0.3-14.5,1.9-14.5,6.7c0,1.9,0.8,3.9,1.6,6.2
		l23.8,67.2l18.4-53.9l-7-20.5c-1.7-4.7-5.3-5.1-9.5-5.8V2H94v6.1c-10.9,0.3-14.6,1.9-14.6,6.7c0,1.9,0.8,3.9,1.6,6.2l22.4,67.2
		L127,21.1z"/>
	<path class="st0" d="M263.2,54.4c0,35.6-23.7,58.4-52,58.4c-32.2,0-51.1-25.1-51.1-54c0-35.6,23.7-58.4,52-58.4
		C244.4,0.4,263.2,25.5,263.2,54.4z M246.5,57.1C246.5,33.3,235.8,9,210,9c-22.1,0-33.2,20.5-33.2,47.2c0,23.8,10.7,48.1,36.6,48.1
		C235.5,104.2,246.5,83.7,246.5,57.1z"/>
	<path class="st0" d="M327.2,2C354.9,2,367,14.6,367,32.6c0,17.6-15.3,27.5-30,29l26.1,32.5c5,6.2,11.7,10.6,20.1,11.1v6.1h-22.3
		c-5.8-3.6-9-7-14.2-13.7l-26.3-33.9h-8.3v30.2c0,9.5,5.6,11.1,15.7,11.4v6.1h-46.5v-6.1c10.4-0.3,15.9-1.9,15.9-11.4V19.4
		c0-9.5-5.4-11.1-15.9-11.4V2H327.2z M312.2,9.1v47.6h10.9c18.5,0,27.4-8.1,27.4-24.1c0-13.2-8.2-23.5-28-23.5H312.2z"/>
	<path class="st0" d="M413.1,19.4c0-9.5-5.4-11.1-15.9-11.4V2h46.7v6.1c-10.1,0.3-15.7,1.9-15.7,11.4v74.4c0,9.5,5.6,11.1,15.7,11.4
		v6.1h-46.7v-6.1c10.4-0.3,15.9-1.9,15.9-11.4V19.4z M482.3,92.9c8.9,9.8,13.1,11.7,20.1,12.3v6.1h-21c-5.1-2.8-9.5-6.8-15.4-13.5
		l-36.3-42l39.1-37.5c1.7-1.6,3.4-3.4,3.4-5.8c0-2.8-1.7-3.6-12.5-4.4V2h39.7v6.1c-7.3,0.3-12,3-17.1,7.9l-37,35.5L482.3,92.9z"/>
	<path class="st0" d="M516.6,102.1l-1.1-25.5h5.4c4.7,16.3,14.2,28.5,30,28.5c14.6,0,23.5-7.2,23.5-19.9c0-10.7-7-15.7-25.8-22.7
		c-20.7-7.6-31.9-15.1-31.9-32.7c0-16.5,12.3-29.3,34.1-29.3c12.6,0,24,4.2,32.4,9.8V34h-5.1c-3.6-15.1-12.9-25.8-28-25.8
		c-13.1,0-19.8,7.5-19.8,17.4c0,10.6,5.3,15.4,24.6,22.6c22.9,8.4,33.8,16.5,33.8,33.8c0,19.9-17.4,30.8-38.1,30.8
		C535.9,112.8,523.4,107.8,516.6,102.1z"/>
	<path class="st0" d="M717,73c-1.6-9.3-4.4-14-11.2-14h-26.5v34.6c0,8.4,4.7,10.6,15.7,10.6h15.6c13.7,0,16.3-4.5,26.3-20.9h4.4
		l-4.7,28h-88.1v-6.1c10.4-0.3,15.9-1.9,15.9-11.4V19.4c0-9.5-5.4-11.1-15.9-11.4V2h87.3v26h-4.2c-5.6-13.5-10-18.8-22.6-18.8h-29.7
		v42.6h26.5c6.8,0,9.7-4.7,11.2-14h5.3V73H717z"/>
	<path class="st0" d="M774.9,17.9c-6.2-7.3-8.2-9.7-15.9-9.8V2h26.6l64.8,82V19.4c0-9.5-5.4-11.1-15.9-11.4V2h40.8v6.1
		c-10.4,0.3-15.9,1.9-15.9,11.4v91.8h-6.4L784,24.9v69c0,9.5,5.4,11.1,15.9,11.4v6.1h-40.8v-6.1c10.4-0.3,15.9-1.9,15.9-11.4V17.9z"
		/>
	<path class="st0" d="M890.7,2h47.8c40.5,0,57.7,24.4,57.7,51.5c0,37.5-24.9,57.7-55.4,57.7h-50.1v-6.1c10.4-0.3,15.9-1.9,15.9-11.4
		V19.4c0-9.5-5.4-11.1-15.9-11.4V2z M921.6,9.1V93c0,9.2,5,11.1,15.9,11.1h3.4c24,0,38.8-16.5,38.8-47.2c0-24.3-12-47.8-44-47.8
		H921.6z"/>
	<path class="st0" d="M97.6,188.8l2.5,32.5h-5C85.9,200,84.2,195.8,70,195.8H58.2v84.8c0,9.5,6.1,11,16.5,11.4v6.1H26.8v-6.1
		c10.4-0.3,16.3-1.9,16.3-11.4v-84.8H31.6c-14.2,0-15.9,4.2-25.2,25.5H1.6l2.3-32.5H97.6z"/>
	<path class="st0" d="M202.5,245.7h-57.7v34.9c0,9.5,5.8,11,15.9,11.4v6.1h-46.7v-6.1c10.4-0.3,15.9-1.9,15.9-11.4v-74.4
		c0-9.5-5.4-11.1-15.9-11.4v-6.1h46.7v6.1c-10.1,0.3-15.9,1.9-15.9,11.4v32.4h57.7v-32.4c0-9.5-5.8-11.1-15.9-11.4v-6.1h46.7v6.1
		c-10.4,0.3-15.9,1.9-15.9,11.4v74.4c0,9.5,5.4,11,15.9,11.4v6.1h-46.7v-6.1c10.1-0.3,15.9-1.9,15.9-11.4V245.7z"/>
	<path class="st0" d="M320.3,261.9h-45.9l-6.8,17c-0.9,2.3-1.7,4.5-1.7,6.2c0,4.8,3.9,6.5,14.6,6.8v6.1h-34.9v-6.1
		c4.2-0.6,7.8-1.6,9.5-5.8l36.9-88.6l-4.8-10.3h17.3l42.8,98.8c1.7,4.2,4.8,5.1,9.3,5.8v6.1h-41.7v-6.1c10.7-0.3,14.5-1.9,14.5-6.7
		c0-1.9-0.8-3.9-1.7-6.2L320.3,261.9z M277.2,255.1h40.3L297,206.3L277.2,255.1z"/>
	<path class="st0" d="M384.7,204.6c-6.2-7.3-8.3-9.7-15.9-9.8v-6.1h26.6l64.8,82v-64.6c0-9.5-5.4-11.1-15.9-11.4v-6.1h40.8v6.1
		c-10.4,0.3-15.9,1.9-15.9,11.4V298h-6.4l-69.1-86.4v69c0,9.5,5.4,11,15.9,11.4v6.1h-40.8v-6.1c10.4-0.3,15.9-1.9,15.9-11.4V204.6z"
		/>
	<path class="st0" d="M516.4,206.2c0-9.5-5.4-11.1-15.9-11.4v-6.1h46.7v6.1c-10.1,0.3-15.7,1.9-15.7,11.4v74.4
		c0,9.5,5.6,11,15.7,11.4v6.1h-46.7v-6.1c10.4-0.3,15.9-1.9,15.9-11.4V206.2z M585.7,279.7c8.9,9.8,13.1,11.7,20.1,12.3v6.1h-21
		c-5.1-2.8-9.5-6.8-15.4-13.5l-36.3-42l39.1-37.5c1.7-1.6,3.4-3.4,3.4-5.8c0-2.8-1.7-3.6-12.5-4.4v-6.1h39.7v6.1
		c-7.3,0.3-12,3-17.1,7.9l-37,35.5L585.7,279.7z"/>
	<path class="st0" d="M732.8,207.7c1.6-2.6,2.6-4.7,2.6-7.2c0-4.2-3.3-5.4-14.2-5.8v-6.1h35v6.1c-4.5,0.6-7,1.7-9.5,5.8L712.4,254
		v26.6c0,9.5,5.6,11,15.7,11.4v6.1h-46.4v-6.1c10.4-0.3,15.9-1.9,15.9-11.4v-26.5l-33.5-53.5c-2.5-4-5.1-5.1-9.5-5.8v-6.1h41.2v6.1
		c-10.7,0.3-14.2,1.6-14.2,5.8c0,2.5,1.1,4.5,2.8,7.2l23.8,38.3L732.8,207.7z"/>
	<path class="st0" d="M869.1,241.2c0,35.6-23.7,58.4-52,58.4c-32.2,0-51.1-25.1-51.1-54c0-35.6,23.7-58.4,52-58.4
		C850.3,187.2,869.1,212.3,869.1,241.2z M852.5,243.9c0-23.8-10.7-48.1-36.6-48.1c-22.1,0-33.2,20.5-33.2,47.2
		c0,23.8,10.7,48.1,36.6,48.1C841.4,291,852.5,270.5,852.5,243.9z"/>
	<path class="st0" d="M914.2,259.7c0,19.5,10.7,30,28.5,30c21,0,32.5-8.9,32.5-31.3v-52.3c0-9.5-5.6-11.1-15.9-11.4v-6.1h40.6v6.1
		c-10.3,0.3-15.7,1.9-15.7,11.4v55.3c0,25.8-19.6,38-41.9,38c-26.2,0-43.3-12-43.3-38.3v-54.9c0-9.5-5.6-11.1-15.9-11.4v-6.1H930
		v6.1c-10.3,0.3-15.7,1.9-15.7,11.4V259.7z"/>
</g>
</svg>
